<?xml version="1.0" encoding="UTF-8"?><svg xmlns="http://www.w3.org/2000/svg" viewBox="0 0 100 100"><path d="M53.75,75c0-13.12,10.63-23.75,23.75-23.75,3.57,0,6.96.79,10,2.21v-29.57H2.5v47.22c0,5.22,4.23,9.44,9.44,9.44h42.47c-.43-1.78-.66-3.64-.66-5.56ZM25.17,71.91v-39.37c0-1.45,1.57-2.36,2.83-1.64l34.1,19.69c1.26.73,1.26,2.54,0,3.27l-34.1,19.69c-1.26.73-2.83-.18-2.83-1.64Z" style="fill:#fff;"/><path d="M78.06,5H11.94c-5.22,0-9.44,4.23-9.44,9.44v4.72h85v-4.72c0-5.22-4.23-9.44-9.44-9.44Z" style="fill:#fff;"/><path d="M77.5,59c8.82,0,16,7.18,16,16s-7.18,16-16,16-16-7.18-16-16,7.18-16,16-16M77.5,55c-11.05,0-20,8.95-20,20s8.95,20,20,20,20-8.95,20-20-8.95-20-20-20h0Z" style="fill:#fff;"/><rect x="75" y="72.5" width="15" height="5" style="fill:#fff;"/><rect x="70" y="67.5" width="15" height="5" transform="translate(7.5 147.5) rotate(-90)" style="fill:#fff;"/></svg>